<?xml version="1.0" standalone="no"?>
<!DOCTYPE svg PUBLIC "-//W3C//DTD SVG 1.1//EN" "http://www.w3.org/Graphics/SVG/1.1/DTD/svg11.dtd" >
<!--
2013-9-30: Created.
-->
<svg>
<metadata>
Created by iconfont
</metadata>
<defs>

<font id="iconfont" horiz-adv-x="1024" >
  <font-face
    font-family="iconfont"
    font-weight="500"
    font-stretch="normal"
    units-per-em="1024"
    ascent="896"
    descent="-128"
  />
    <missing-glyph />
    
    <glyph glyph-name="anquanzhongxin_huaban" unicode="&#59047;" d="M921.4194 744.296296a10.835979 10.835979 0 0 1-10.11358 10.47478A596.701235 596.701235 0 0 0 518.682187 893.471605a10.47478 10.47478 0 0 1-13.364374 0A596.701235 596.701235 0 0 0 112.69418 754.771076a10.835979 10.835979 0 0 1-10.11358-10.47478v-382.510053c0-387.566843 409.6-489.786243 409.6-489.786243s409.238801 102.2194 409.2388 489.786243c0 106.553792-0.361199 229.000353 0 382.510053zM454.027513 204.66455l-180.599647 180.599648 36.119929 36.119929 144.479718-144.479718 288.959436 288.959436 36.119929-36.11993z"  horiz-adv-x="1024" />

    
    <glyph glyph-name="daochushuju_huaban" unicode="&#59048;" d="M63.602484 641.590062H0v-769.590062h1017.639752v63.602484H63.602484zM178.086957 527.10559h101.763975v-496.099379H178.086957zM616.944099 787.875776h101.763976v-578.782608H616.944099zM400.695652 896h101.763975v-686.906832H400.695652zM884.074534 31.006211H1017.639752l-171.726709 171.726708V132.770186H394.335404v-101.763975h451.577639z"  horiz-adv-x="1024" />

    
    <glyph glyph-name="fukuan_huaban" unicode="&#59049;" d="M960 605.44V0H64V605.44h896m64 64H0V-64h1024V669.44zM717.44 768v-98.56H64V768h653.44m64 64H0v-226.56h781.44V832zM760.32 407.04m-71.68 0a71.68 71.68 0 1 1 143.36 0 71.68 71.68 0 1 1-143.36 0Z"  horiz-adv-x="1024" />

    
    <glyph glyph-name="guanbidingdan_huaban" unicode="&#59050;" d="M252.8 568.96h285.44v-59.52H252.8zM252.8 449.28h378.24v-59.52H252.8zM252.8 329.6h378.24v-59.52H252.8zM622.208 216.064l271.552-271.488-72.448-72.448-271.552 271.552zM549.376-55.552l271.488 271.552 72.448-72.448L621.76-128zM471.04-64H192V665.6L355.84 832H832v-537.6h64V896H320L128 704v-832h345.6zM400.64 896v-261.12H132.48m6.4 64h197.76V832"  horiz-adv-x="1024" />

    
    <glyph glyph-name="daorumoban_huaban" unicode="&#59051;" d="M896 710.4V832H0v-230.4h76.8V755.2h742.4v-620.8H76.8V294.4H0V64h128v-128h896V710.4h-128z m57.6-697.6H198.4V64H896V633.6h57.6v-620.8zM601.6 448L435.2 608V512H0v-128h435.2v-96z"  horiz-adv-x="1024" />

    
    <glyph glyph-name="fabushuju_huaban" unicode="&#59052;" d="M64-64V646.4H0V-128h1030.4v64zM198.4 531.2h102.4v-499.2H198.4zM460.8 896h102.4v-864H460.8zM723.2 32h102.4V588.8h64L774.4 704l-115.2-115.2h64z"  horiz-adv-x="1030" />

    
    <glyph glyph-name="jinyongzidian_huaban" unicode="&#59053;" d="M759.296 559.168l-422.208-422.272-72.448 72.448 422.272 422.208zM512 832a448 448 0 1 0-448-448 448 448 0 0 0 448 448m0 64a512 512 0 1 1 512-512 512 512 0 0 1-512 512z"  horiz-adv-x="1024" />

    
    <glyph glyph-name="qiyongzidian_huaban" unicode="&#59054;" d="M815.296 521.344l-386.048-386.048-72.384 72.384 386.048 386.048zM243.008 466.112l258.368-258.432-72.384-72.384L170.56 393.6zM512 832a448 448 0 1 0-448-448 448 448 0 0 0 448 448m0 64a512 512 0 1 1 512-512 512 512 0 0 1-512 512z"  horiz-adv-x="1024" />

    
    <glyph glyph-name="shanchu_huaban" unicode="&#59055;" d="M773.76 761.6V-64H250.24V761.6h523.52m64 64H186.24V-128h651.52V825.6zM931.2 766.72H92.8v59.52h838.4zM336 40.32V659.84h59.52v-619.52zM482.56 40.32V659.84h59.52v-619.52zM625.92 40.32V659.84h59.52v-619.52zM302.08 896h419.2v-124.16H302.08z"  horiz-adv-x="1024" />

    
    <glyph glyph-name="shujushichang_huaban" unicode="&#59056;" d="M971.28436 358.010219A485.635071 485.635071 0 1 0 485.64929 843.284223V358.010219zM1024.000137 410.725996H538.365067V896a485.635071 485.635071 0 0 0 485.63507-485.274004z"  horiz-adv-x="1024" />

    
    <glyph glyph-name="pingjia_huaban" unicode="&#59057;" d="M960 768v-605.44h-236.8l-16.64-11.52L512 14.08l-192 136.96-16.64 11.52H64V768h896m64 64H0v-733.44h280.32L512-64l231.68 162.56H1024V832zM263.68 473.6m-70.4 0a70.4 70.4 0 1 1 140.8 0 70.4 70.4 0 1 1-140.8 0ZM512.64 473.6m-70.4 0a70.4 70.4 0 1 1 140.8 0 70.4 70.4 0 1 1-140.8 0ZM761.6 473.6m-70.4 0a70.4 70.4 0 1 1 140.8 0 70.4 70.4 0 1 1-140.8 0Z"  horiz-adv-x="1024" />

    
    <glyph glyph-name="tianjiashujubao_huaban" unicode="&#59058;" d="M819.2 256v-384h-102.4v384zM576 115.2h384v-102.4H576zM512 832c249.6 0 384-82.56 384-115.84s-134.4-116.48-384-116.48-384 82.56-384 116.48S262.4 832 512 832m0 64C264.32 896 64 815.36 64 716.16s200.32-180.48 448-180.48 448 80.64 448 180.48S759.68 896 512 896zM512-64c-249.6 0-384 82.56-384 115.84H64C64-47.36 264.32-128 512-128M64 706.56h64v-659.2H64zM896 706.56h64v-436.48h-64z"  horiz-adv-x="1024" />

    
    <glyph glyph-name="tianjiazidian_huaban" unicode="&#59059;" d="M764.8 332.8H259.84V435.2h504.96zM563.2 636.8v-504.96H460.8V636.8zM512 832a448 448 0 1 0-448-448 448 448 0 0 0 448 448m0 64a512 512 0 1 1 512-512 512 512 0 0 1-512 512z"  horiz-adv-x="1024" />

    
    <glyph glyph-name="tongji-xiazai_huaban" unicode="&#59060;" d="M922.275776 533.465839v-559.701864H101.803727V533.465839H0.039752v-661.465839H1024.039752V533.465839zM464.337888 164.571429l63.602485-63.602485 159.006211 159.006211H591.542857V806.956522h-127.204969V259.975155H368.934161z"  horiz-adv-x="1030" />

    
    <glyph glyph-name="weiduxiaoxi_huaban" unicode="&#59061;" d="M0 690.478873v-612.957746h1020.394366v612.957746H0z m512-367.774648L126.197183 618.366197h771.605634l-385.802817-295.661972z m-201.915493 64.901409L72.112676 203.71831V571.492958l237.971831-183.887324z m61.295775-46.87324l140.619718-108.169014 144.225352 111.774648 248.788733-191.098591H122.591549l248.788733 187.492957z m342.535211 46.87324L948.28169 571.492958v-364.169014l-234.366197 180.28169z"  horiz-adv-x="1024" />

    
    <glyph glyph-name="wendangfabu_huaban_huaban" unicode="&#59062;" d="M255.36 504.96h285.44v-59.52H255.36zM255.36 385.28H633.6v-59.52H255.36zM255.36 265.6H633.6v-59.52H255.36zM550.4-64H192V665.6L358.4 832H832v-601.6h64V896H320L128 704v-832h422.4zM403.84 896v-261.12H135.68m6.4 64h197.76V832M896 180.48V-128h-95.36v62.72l-57.6-62.72H588.8l307.2 308.48z"  horiz-adv-x="1024" />

    
    <glyph glyph-name="wodechongzhijilu_huaban" unicode="&#59063;" d="M511.8194 864.936861C244.531922 864.936861 27.812346 744.657496 27.812346 596.204586s216.719577-269.093474 484.007054-269.093475 484.368254 120.640564 484.368254 269.093475-216.719577 268.732275-484.368254 268.732275z m161.456085-309.186596h-121.001764v-121.001764h-80.547442V555.750265H350.724515V636.297707h121.001764V757.66067h80.547442v-121.362963h121.001764zM996.187654 381.652205c0-148.45291-216.719577-269.093474-484.368254-269.093475S27.812346 233.199295 27.812346 381.652205a144.479718 144.479718 0 0 0 0 22.033157 474.615873 474.615873 0 0 1 93.911816-67.544269 816.671605 816.671605 0 0 1 390.095238-90.299823 819.2 819.2 0 0 1 388.650441 90.299823 474.615873 474.615873 0 0 1 93.911817 67.544269 144.479718 144.479718 0 0 0 1.805996-22.033157zM996.187654 171.795414c0-148.45291-216.719577-268.732275-484.368254-268.732275S27.812346 23.342504 27.812346 171.795414a152.064903 152.064903 0 0 0 0 22.394357 460.167901 460.167901 0 0 1 93.911816-67.544268 812.337213 812.337213 0 0 1 388.289242-90.661023 814.865608 814.865608 0 0 1 390.456437 90.661023 474.615873 474.615873 0 0 1 93.911817 67.544268 152.064903 152.064903 0 0 0 1.805996-22.394357z"  horiz-adv-x="1024" />

    
    <glyph glyph-name="wodegongdan_huaban" unicode="&#59064;" d="M402.737213 896L102.5806 595.843386v-722.398589h818.8388V896z m252.839507-450.77672v-61.40388H247.060317v61.40388z m-252.839507 361.199295v-210.579189H192.519224zM758.518519 41.402469H247.060317V101.361552H758.518519z m0 171.208466H247.060317v61.40388H758.518519z"  horiz-adv-x="1024" />

    
    <glyph glyph-name="wodexiaofeijilu-" unicode="&#59065;" d="M27.812346 595.843386a484.368254 269.093474 0 1 1 968.736508 0 484.368254 269.093474 0 1 1-968.736508 0ZM996.187654 381.652205c0-148.814109-216.719577-269.093474-484.368254-269.093475S27.812346 232.838095 27.812346 381.652205v22.394356a453.666314 453.666314 0 0 1 93.911816-67.905468 814.14321 814.14321 0 0 1 390.095238-90.299823 816.671605 816.671605 0 0 1 388.650441 90.299823 444.275132 444.275132 0 0 1 93.911817 67.905468 160.372487 160.372487 0 0 0 1.805996-22.394356zM996.187654 171.795414c0-148.45291-216.719577-268.732275-484.368254-268.732275S27.812346 23.342504 27.812346 171.795414v22.394357a442.830335 442.830335 0 0 1 93.911816-67.544268 812.337213 812.337213 0 0 1 388.650441-91.022223 809.447619 809.447619 0 0 1 390.095238 91.022223 421.880776 421.880776 0 0 1 93.911817 67.544268 160.372487 160.372487 0 0 0 1.805996-22.394357z"  horiz-adv-x="1024" />

    
    <glyph glyph-name="wendangshangchuan_huaban" unicode="&#59066;" d="M960.64 140.16L844.8 256l-115.84-115.84h231.68zM896 140.8v-268.16h-102.4V140.8zM255.36 568.96h285.44v-59.52H255.36zM255.36 449.28H633.6v-59.52H255.36zM255.36 329.6H633.6v-59.52H255.36zM697.6-64H192V665.6L358.4 832H832v-473.6h64V896H320L128 704v-832h569.6zM403.84 896v-261.12H135.68m6.4 64h197.76V832"  horiz-adv-x="1024" />

    
    <glyph glyph-name="xiazaimoban_huaban" unicode="&#59067;" d="M902.4 704V832h-230.4v-76.8h160v-614.4H76.8V755.2h153.6V832H0v-768H134.4v-128h896V704h-128z m51.2-691.2H211.2V64H902.4V627.2h51.2v-614.4zM454.4 230.4l160 160H518.4V832H390.4v-441.6H294.4z"  horiz-adv-x="1030" />

    
    <glyph glyph-name="xinjiangongdan_huaban" unicode="&#59068;" d="M294.4 652.8h435.2v-57.6H294.4zM294.4 492.8h435.2v-57.6H294.4zM294.4 326.4h236.8v-57.6H294.4zM774.4 224h-76.8v-121.6H576v-76.8h121.6v-121.6h76.8v121.6H896v76.8h-121.6zM128 864v-960h384v64H192v832h640v-512h64v576z"  horiz-adv-x="1024" />

    
    <glyph glyph-name="xinjianshili_huaban_huaban" unicode="&#59069;" d="M563.2 448H460.8v-140.8H320v-102.4h140.8V64h102.4v140.8H704V307.2H563.2zM640 896H128v-1024h768V640l-256 256z m-19.2-83.2l179.2-179.2H620.8V812.8zM192-64V832h364.8v-262.4H832V-64H192z"  horiz-adv-x="1024" />

    
    <glyph glyph-name="xitongguanli_huaban" unicode="&#59070;" d="M1007.384832 255.232451l-108.359788 83.075838a407.071605 407.071605 0 0 1 0 91.383422l108.359788 83.075838a12.641975 12.641975 0 0 1 4.695591 16.615167L888.550265 740.684303a13.003175 13.003175 0 0 1-16.615168 4.334392l-126.419753-50.567901a385.038448 385.038448 0 0 1-79.463845 45.149911L647.269136 873.966843a12.280776 12.280776 0 0 1-12.280776 11.919577h-246.337919a13.003175 13.003175 0 0 1-12.280776-11.919577l-18.421164-134.366138a394.42963 394.42963 0 0 1-41.17672-20.22716 397.319224 397.319224 0 0 1-38.648324-25.64515L151.703704 745.018695a13.003175 13.003175 0 0 1-16.976367-4.334392l-122.80776-211.301587a12.280776 12.280776 0 0 1 4.334391-16.615167l108.359789-83.075838a351.808113 351.808113 0 0 1 0-91.383422l-108.359789-83.075838a11.919577 11.919577 0 0 1-4.334391-16.253968L134.727337 29.121693a13.003175 13.003175 0 0 1 16.976367-4.695591l126.419753 51.2903A381.426455 381.426455 0 0 1 357.948501 29.121693l18.421164-134.004938a13.003175 13.003175 0 0 1 12.280776-11.919577h246.337919a12.280776 12.280776 0 0 1 12.280776 11.919577l18.782363 134.004938a397.319224 397.319224 0 0 1 41.17672 20.58836 389.734039 389.734039 0 0 1 38.287125 25.283951l126.419753-51.2903a12.641975 12.641975 0 0 1 16.615168 5.417989l122.80776 209.85679a11.919577 11.919577 0 0 1-3.973193 16.253968zM511.8194 209.72134a175.181658 175.181658 0 1 0 176.987655 175.181658 176.265256 176.265256 0 0 0-176.987655-175.181658z"  horiz-adv-x="1024" />

    
    <glyph glyph-name="zhankaishouqi_huaban" unicode="&#59071;" d="M41.899118 795.586596h940.201764v-104.386596H41.899118zM346.751323 556.111464h635.349559v-104.386596H346.751323zM346.751323 316.636332h635.349559v-104.386597H346.751323zM41.899118 76.8h940.201764v-104.386596H41.899118zM271.26067 556.111464l-229.361552-171.930864 229.361552-172.292064V556.111464z"  horiz-adv-x="1024" />

    
    <glyph glyph-name="APIchuangjian_huaban" unicode="&#59072;" d="M952.309069 71.317067H831.064543V192.561593h-76.575491v-121.244526H633.244526v-76.57549h121.244526V-126.502949H831.064543v121.244526h121.244526zM397.136765 626.489371L422.661928 703.064862C448.187091 766.87777 512 805.165515 575.812909 798.784225c76.57549-12.762582 127.625817-82.956781 114.863235-159.532272 0-6.381291-6.381291-19.143873-6.381291-25.525163L607.719363 396.762901c-6.381291-12.762582-12.762582-31.906454-25.525164-44.669036-38.287745-38.287745-95.719363-57.431618-153.15098-38.287745-25.525163 12.762582-44.669036 31.906454-63.812909 51.050327 0 6.381291-6.381291 6.381291-12.762581 6.38129l-6.381291-6.38129L320.561274 281.899665v-12.762581c19.143873-19.143873 44.669036-38.287745 76.575491-44.669036 44.669036-19.143873 102.100654-19.143873 146.769689 0 12.762582 6.381291 25.525163 6.381291 31.906455 12.762581 38.287745 19.143873 76.57549 44.669036 95.719362 82.956782 6.381291 12.762582 19.143873 31.906454 25.525164 44.669036l76.57549 216.963889c44.669036 121.244526-19.143873 255.251634-134.007108 299.92067-19.143873 6.381291-38.287745 12.762582-57.431618 12.762581-108.481944 12.762582-210.582598-57.431618-242.489052-159.532271l-57.431618-153.15098c25.525163 12.762582 44.669036 25.525163 76.575491 38.287745 6.381291 0 25.525163 0 38.287745 6.38129zM556.669036 154.273848c-12.762582-6.381291-25.525163-6.381291-44.669036-12.762581L486.474837 64.935776c-19.143873-63.812909-82.956781-102.100654-153.150981-95.719362-76.57549 12.762582-127.625817 82.956781-114.863235 159.532271 0 6.381291 6.381291 19.143873 6.381291 25.525163l76.57549 216.963889c6.381291 19.143873 19.143873 31.906454 25.525163 44.669036 38.287745 44.669036 95.719363 57.431618 153.150981 38.287745 25.525163-12.762582 44.669036-25.525163 63.812908-51.050326 0-6.381291 6.381291-6.381291 12.762582-6.381291l6.381291 6.381291 25.525163 76.57549v12.762582c-19.143873 19.143873-44.669036 38.287745-76.57549 44.669036-44.669036 19.143873-102.100654 19.143873-146.76969 0-12.762582 0-25.525163-6.381291-31.906454-12.762582-38.287745-12.762582-70.194199-44.669036-95.719363-76.57549-6.381291-12.762582-19.143873-31.906454-19.143872-44.669036l-82.956781-216.963889c-44.669036-121.244526 19.143873-255.251634 140.388398-299.92067 12.762582-6.381291 31.906454-12.762582 51.050327-12.762582 108.481944-12.762582 210.582598 57.431618 248.870344 159.532271l57.431617 159.532271c-25.525163-19.143873-44.669036-31.906454-76.57549-38.287745z"  horiz-adv-x="1024" />

    
    <glyph glyph-name="zhongqidingdan_huaban" unicode="&#59073;" d="M256 569.6h288V512H256zM256 448h377.6v-57.6H256zM256 332.8h377.6v-57.6H256zM192 633.6h211.2V832H832v-537.6h64V896H320L128 704v-832h345.6v64H192V633.6z m32 64l115.2 115.2v-115.2H224zM787.2 224h-12.8l19.2 57.6-147.2-64 96-134.4 12.8 57.6h12.8c44.8-19.2 64-70.4 44.8-115.2s-70.4-64-115.2-44.8c-32 12.8-51.2 44.8-51.2 83.2 0 6.4 0 6.4 6.4 12.8l-89.6 44.8c-6.4-19.2-6.4-38.4-6.4-51.2 0-102.4 83.2-179.2 179.2-179.2s179.2 83.2 179.2 179.2c-12.8 57.6-57.6 128-128 153.6z"  horiz-adv-x="1024" />

    
    <glyph glyph-name="APIfabu_huaban" unicode="&#59074;" d="M735.646359 889.610104C627.018128 902.389896 524.779792 838.490936 486.440416 736.252601L428.931352 576.505201c19.169688 19.169688 44.729272 25.559584 76.678752 38.339376 12.779792 6.389896 25.559584 6.389896 44.729272 12.779792L575.89896 704.303121c19.169688 63.89896 83.068648 102.238336 153.357503 95.848439 76.678752-12.779792 127.79792-83.068648 115.018128-159.747399 0-6.389896-6.389896-19.169688-6.389896-25.559584l-83.068648-217.256463c-6.389896-19.169688-12.779792-31.94948-25.559584-44.729272-38.339376-44.729272-95.84844-57.509064-153.357503-38.339376-19.169688 6.389896-44.729272 25.559584-57.509064 51.119168 0 6.389896-6.389896 6.389896-12.779792 6.389896l-6.389896-6.389896-31.94948-83.068648v-12.779792c19.169688-19.169688 44.729272-38.339376 76.678752-44.729272 44.729272-19.169688 102.238336-19.169688 146.967607 0 12.779792 0 25.559584 6.389896 31.94948 12.779792 44.729272 19.169688 76.678752 44.729272 102.238336 83.068648 6.389896 12.779792 19.169688 31.94948 25.559584 44.729272l83.068647 217.256463c44.729272 121.408024-19.169688 255.595839-140.577711 300.325111-25.559584 0-44.729272 6.389896-57.509064 6.389896zM473.660624-126.383356c108.628232-12.779792 210.866567 51.119168 249.205943 159.747399l57.509064 159.7474c-25.559584-19.169688-44.729272-25.559584-76.678752-38.339376-12.779792-6.389896-25.559584-6.389896-38.339376-6.389896L633.408024 65.313523c-19.169688-63.89896-83.068648-102.238336-153.357504-95.84844-76.678752 12.779792-127.79792 83.068648-115.018127 159.7474 0 6.389896 6.389896 19.169688 6.389896 25.559584L448.10104 365.638634c6.389896 19.169688 19.169688 31.94948 31.94948 44.729272 51.119168 57.509064 140.577711 63.89896 198.086775 12.779792 6.389896-6.389896 12.779792-12.779792 19.169688-25.559584 0-6.389896 6.389896-6.389896 12.779792-6.389896 0 0 6.389896 0 6.389896 6.389896l25.559584 76.678752v12.779791c-19.169688 19.169688-51.119168 38.339376-76.678752 44.729272-44.729272 12.779792-102.238336 12.779792-146.967607 0-12.779792 0-25.559584-6.389896-31.94948-12.779792-44.729272-12.779792-76.678752-38.339376-95.84844-70.288855-12.779792-12.779792-19.169688-31.94948-25.559583-44.729272l-76.678752-217.256463c-44.729272-121.408024 19.169688-255.595839 140.577711-293.935215 12.779792-12.779792 31.94948-19.169688 44.729272-19.169688zM313.913225-126.383356h-127.79792c-31.94948 38.339376-57.509064 83.068648-70.288856 134.187815-19.169688 76.678752-12.779792 159.747399 12.779792 230.036255l25.559584 63.89896-70.288855-25.559584 38.339375 108.628232 185.306984 63.89896-95.84844-242.816048c-19.169688-57.509064-19.169688-115.018128-6.389896-178.917087 19.169688-57.509064 57.509064-115.018128 108.628232-153.357503z"  horiz-adv-x="1024" />

    
    <glyph glyph-name="icon_api" unicode="&#59075;" d="M692.28169 881.577465C576.901408 924.84507 454.309859 867.15493 411.042254 751.774648l-79.323944-219.943662c39.661972 46.873239 93.746479 72.112676 155.042253 75.71831l36.056338 100.957746c21.633803 50.478873 82.929577 75.71831 133.408451 54.084507 46.873239-21.633803 72.112676-72.112676 57.690141-122.591549l-90.140845-241.577465c-7.211268-18.028169-14.422535-32.450704-28.845071-43.267605-28.84507-25.239437-64.901408-32.450704-100.957746-18.028169-14.422535 7.211268-28.84507 14.422535-43.267606 28.84507L411.042254 246.985915c14.422535-7.211268 28.84507-18.028169 43.267605-21.633802 115.380282-39.661972 237.971831 18.028169 281.239437 129.802817l90.140845 245.183098C865.352113 715.71831 807.661972 841.915493 692.28169 881.577465zM328.112676-113.577465c115.380282-39.661972 237.971831 18.028169 281.239437 129.802817l79.323943 219.943662c-39.661972-46.873239-93.746479-75.71831-155.042253-79.323944l-36.056338-104.56338c-18.028169-54.084507-79.323944-79.323944-129.802817-61.295775S288.450704 73.915493 310.084507 128l86.535211 241.577465c7.211268 18.028169 14.422535 32.450704 28.845071 43.267605 43.267606 36.056338 104.56338 32.450704 144.225352-7.211267v-3.605634l43.267605 118.985916c-14.422535 7.211268-28.84507 18.028169-43.267605 21.633802-28.84507 10.816901-57.690141 14.422535-90.140845 14.422536-86.535211-7.211268-162.253521-61.295775-191.098592-144.225353l-90.140845-241.577464c-39.661972-115.380282 18.028169-241.577465 129.802817-284.845071z"  horiz-adv-x="1024" />

    
    <glyph glyph-name="APIxiazai_huaban" unicode="&#59076;" d="M288.354478-126.379528c108.627825-12.779744 210.865778 51.118976 249.20501 153.356929l57.508849 159.746801c-19.169616-19.169616-44.729104-25.559488-70.288593-38.339232-12.779744-6.389872-25.559488-6.389872-44.729104-6.389872L448.101279 58.926761c-19.169616-63.898721-83.068337-102.237953-153.356929-95.848081-76.678465 12.779744-127.797441 83.068337-115.017697 159.746802 0 6.389872 6.389872 19.169616 6.389872 25.559488l76.678465 217.25565c6.389872 19.169616 12.779744 31.94936 25.559488 44.729104 51.118976 57.508848 134.187313 70.288593 191.696162 19.169616 12.779744-6.389872 25.559488-12.779744 31.94936-25.559488 0-6.389872 6.389872-6.389872 12.779744-6.389872 0 0 6.389872 0 6.389872 6.389872l25.559488 76.678465v12.779744c-19.169616 19.169616-44.729104 31.94936-76.678464 44.729104-44.729104 12.779744-95.848081 12.779744-146.967057 0-12.779744-6.389872-25.559488-6.389872-31.949361-12.779744-38.339232-19.169616-76.678465-44.729104-102.237953-76.678465-6.389872-12.779744-12.779744-31.94936-19.169616-44.729104l-83.068336-217.25565c-44.729104-121.407569 19.169616-255.594882 140.577185-293.934114 19.169616-12.779744 38.339232-19.169616 51.118976-19.169616zM550.339232 889.610128C441.711407 902.389872 339.473455 838.491152 301.134222 736.253199L243.625374 576.506397c25.559488 19.169616 51.118976 31.94936 76.678464 38.339233 12.779744 6.389872 25.559488 6.389872 44.729105 12.779744L390.592431 704.303838c19.169616 63.898721 83.068337 102.237953 153.356929 95.848081 76.678465-12.779744 127.797441-83.068337 115.017697-159.746801 0-6.389872-6.389872-19.169616-6.389872-25.559488L575.898721 397.58998c-6.389872-19.169616-12.779744-31.94936-25.559489-44.729104-38.339232-44.729104-95.848081-57.508848-153.356929-38.339233-25.559488 6.389872-44.729104 25.559488-63.89872 51.118977 0 6.389872-6.389872 6.389872-12.779745 6.389872l-6.389872-6.389872-31.94936-83.068337v-12.779744c19.169616-19.169616 51.118976-38.339232 76.678465-44.729105 44.729104-19.169616 102.237953-19.169616 146.967057 0 12.779744 0 25.559488 6.389872 31.94936 12.779745 44.729104 19.169616 76.678465 44.729104 102.237953 83.068336 6.389872 12.779744 19.169616 31.94936 25.559488 44.729105l76.678465 217.255649c44.729104 121.407569-19.169616 255.594882-140.577185 293.934115-19.169616 6.389872-38.339232 12.779744-51.118977 12.779744zM710.086034 889.610128h127.797441c31.94936-38.339232 57.508848-83.068337 70.288592-134.187313 19.169616-76.678465 12.779744-159.746801-12.779744-230.035394l-25.559488-63.898721 76.678465 25.559489-38.339233-108.627825-185.306289-63.898721 95.848081 249.20501c12.779744 57.508848 12.779744 121.407569 0 178.916418-19.169616 57.508848-57.508848 108.627825-108.627825 146.967057z"  horiz-adv-x="1024" />

    
    <glyph glyph-name="wodegongxiang_huaban" unicode="&#59077;" d="M512 896C227.15493 896 0 668.84507 0 384 0 102.760563 227.15493-128 512-128c281.239437 0 512 227.15493 512 512C1020.394366 668.84507 793.239437 896 512 896z m328.112676-800.450704c-25.239437 64.901408-79.323944 151.43662-176.676056 173.070422-10.816901 0-21.633803-3.605634-32.450705-10.816901-25.239437-25.239437-54.084507-43.267606-86.535211-54.084507-10.816901-3.605634-21.633803-3.605634-32.450704-3.605634-10.816901 0-21.633803 0-32.450704 3.605634-32.450704 10.816901-61.295775 28.84507-86.535211 54.084507-7.211268 7.211268-21.633803 10.816901-32.450705 10.816901-97.352113-25.239437-151.43662-111.774648-176.676056-176.676056-68.507042 79.323944-111.774648 180.28169-111.774648 292.056338C72.112676 625.577465 270.422535 823.887324 512 823.887324c241.577465 0 439.887324-194.704225 439.887324-439.887324 0-111.774648-43.267606-212.732394-111.774648-288.450704zM512 661.633803c-100.957746 0-173.070423-46.873239-173.070423-209.126761v-7.211267c0-100.957746 72.112676-191.098592 144.225353-209.126761 10.816901-3.605634 18.028169-3.605634 28.84507-3.605634 10.816901 0 18.028169 0 28.84507 3.605634 72.112676 18.028169 144.225352 108.169014 144.225353 209.126761 0 169.464789-72.112676 216.338028-173.070423 216.338028z"  horiz-adv-x="1024" />

    
    <glyph glyph-name="tianjialianxiren_huaban" unicode="&#59078;" d="M1024 102.4h-153.6V256h-76.8v-153.6H640v-76.8h153.6V-128h76.8v153.6H1024zM467.2 256c12.8-6.4 25.6-6.4 44.8-6.4 12.8 0 32 0 44.8 6.4 128 51.2 217.6 172.8 217.6 313.6 0 256-108.8 326.4-256 326.4C364.8 896 256 825.6 256 582.4V576c0-140.8 83.2-268.8 211.2-320zM320 582.4C320 812.8 416 832 512 832c51.2 6.4 102.4-12.8 140.8-44.8 44.8-64 64-134.4 57.6-211.2 0-108.8-64-211.2-172.8-256-6.4 0-19.2-6.4-25.6-6.4-6.4 0-19.2 6.4-25.6 6.4C384 364.8 320 460.8 320 576v6.4zM230.4-51.2c-51.2 6.4-102.4 19.2-153.6 32H64c12.8 38.4 70.4 211.2 230.4 256 38.4-44.8 96-76.8 153.6-89.6 19.2-6.4 44.8-6.4 64-6.4 25.6 0 44.8 6.4 70.4 6.4 44.8 12.8 83.2 32 115.2 57.6V288h-6.4c-32-38.4-76.8-64-128-83.2-19.2-6.4-32-6.4-51.2-6.4-19.2 0-32 0-51.2 6.4-51.2 12.8-96 44.8-128 83.2-6.4 12.8-19.2 19.2-32 19.2h-12.8C115.2 268.8 32 96 6.4 0c-12.8-44.8 6.4-70.4 57.6-83.2 51.2-12.8 108.8-25.6 160-32 76.8-12.8 211.2-12.8 288-12.8 44.8 0 115.2 0 179.2 6.4V-64H512c-76.8 0-204.8 6.4-281.6 12.8z"  horiz-adv-x="1024" />

    
    <glyph glyph-name="tianjiashoujihao_huaban" unicode="&#59079;" d="M473.6 288h76.8V409.6h121.6V486.4H550.4V608H473.6v-121.6H352v-76.8h121.6zM768 896H256c-38.4 0-64-25.6-64-64v-896c0-38.4 25.6-64 64-64h512c38.4 0 64 25.6 64 64V832c0 38.4-25.6 64-64 64z m0-64v-774.4H256V832h512zM473.6-32c0 12.8 12.8 25.6 32 25.6s32-12.8 32-25.6-12.8-32-32-32-32 19.2-32 32z"  horiz-adv-x="1024" />

    
    <glyph glyph-name="yonghuxinxi_huaban" unicode="&#59080;" d="M724.732394 311.887324h219.943662v-104.56338h-219.943662zM724.732394 1.802817h299.267606v-104.56338h-299.267606zM724.732394 156.84507h299.267606v-104.56338h-299.267606zM454.309859 265.014085c10.816901-3.605634 25.239437-7.211268 39.661972-7.211268 10.816901 0 25.239437 3.605634 39.661972 7.211268 100.957746 25.239437 205.521127 155.042254 205.521127 299.267605 0 72.112676-10.816901 129.802817-28.845071 173.070423-36.056338 100.957746-115.380282 133.408451-216.338028 133.40845h-3.605634c-144.225352 0-248.788732-64.901408-248.788732-295.661971v-7.211268c3.605634-147.830986 104.56338-274.028169 212.732394-302.873239zM533.633803 218.140845c-14.422535-3.605634-32.450704-7.211268-46.87324-7.211268s-32.450704 3.605634-46.873239 7.211268c-46.873239 14.422535-90.140845 39.661972-122.591549 75.71831-10.816901 10.816901-25.239437 18.028169-43.267606 14.422535C108.169014 272.225352 28.84507 102.760563 3.605634 12.619718c-10.816901-39.661972 7.211268-68.507042 57.690141-79.323943 0 0 82.929577-18.028169 155.042253-25.239437s201.915493-10.816901 274.028169-10.816901c46.873239 0 122.591549 0 187.492958 3.605633V304.676056c-7.211268 0-14.422535-3.605634-21.633803-10.816901-32.450704-36.056338-75.71831-61.295775-122.591549-75.71831z"  horiz-adv-x="1024" />

    


  </font>
</defs>
</svg>
